<svg width="18" height="18" viewBox="0 0 18 18" fill="none" xmlns="http://www.w3.org/2000/svg">
<path d="M8.875 2C4.52617 2 1 5.52617 1 9.875C1 14.2238 4.52617 17.75 8.875 17.75C13.2238 17.75 16.75 14.2238 16.75 9.875C16.75 5.52617 13.2238 2 8.875 2ZM12.2764 7.30332L8.57441 12.4361C8.52267 12.5084 8.45446 12.5672 8.37544 12.6078C8.29642 12.6484 8.20886 12.6696 8.12002 12.6696C8.03118 12.6696 7.94362 12.6484 7.8646 12.6078C7.78557 12.5672 7.71737 12.5084 7.66563 12.4361L5.47363 9.39863C5.40684 9.30547 5.47363 9.17539 5.58789 9.17539H6.4123C6.5916 9.17539 6.76211 9.26152 6.86758 9.40918L8.11914 11.1459L10.8824 7.31387C10.9879 7.16797 11.1566 7.08008 11.3377 7.08008H12.1621C12.2764 7.08008 12.3432 7.21016 12.2764 7.30332Z" fill="#067A73"/>
</svg>
